<svg xmlns="http://www.w3.org/2000/svg" width="20" height="19" viewBox="0 0 20 19">
    <g fill="none" fill-rule="evenodd">
        <g fill="#FFF" fill-rule="nonzero">
            <g>
                <g>
                    <path d="M1193.45 18.62c1.982-1.114 2.963-3.425 2.387-5.625-.576-2.2-2.563-3.734-4.837-3.734-2.274 0-4.261 1.535-4.837 3.734-.576 2.2.405 4.51 2.387 5.625-4.152 1.112-7.043 4.871-7.05 9.17h1c0-4.694 3.806-8.5 8.5-8.5s8.5 3.806 8.5 8.5h1c-.007-4.299-2.898-8.058-7.05-9.17zm-6.45-4.34c0-2.21 1.79-4 4-4s4 1.79 4 4-1.79 4-4 4-4-1.79-4-4z" transform="translate(-1541 -28) translate(360 19)"/>
                </g>
            </g>
        </g>
    </g>
</svg>
