<?xml version="1.0" encoding="UTF-8"?>
<svg width="20px" height="20px" viewBox="0 0 20 20" version="1.1" xmlns="http://www.w3.org/2000/svg" xmlns:xlink="http://www.w3.org/1999/xlink">
    <!-- Generator: Sketch 56.2 (81672) - https://sketch.com -->
    <title>Shape</title>
    <desc>Created with Sketch.</desc>
    <g id="New-Design" stroke="none" stroke-width="1" fill="none" fill-rule="evenodd">
        <g id="Home_search" transform="translate(-531.000000, -29.000000)" fill="#FFFFFF" fill-rule="nonzero">
            <path d="M550.36071,47.6507098 L545.00071,42.2907098 C547.85802,39.0499554 547.625941,34.1259921 544.476484,31.1683521 C541.327028,28.2107122 536.398206,28.2880974 533.343151,31.3431514 C530.288097,34.3982055 530.210712,39.3270276 533.168352,42.4764842 C536.125992,45.6259408 541.049955,45.85802 544.29071,43.0007098 L549.65071,48.3607098 L550.36071,47.6507098 Z M532.01071,37.0007098 C532.01071,33.1347166 535.144717,30.0007098 539.01071,30.0007098 C542.876703,30.0007098 546.01071,33.1347166 546.01071,37.0007098 C546.01071,40.8667031 542.876703,44.0007098 539.01071,44.0007098 C535.148618,44.0007098 532.016227,40.8727972 532.01071,37.0107098 L532.01071,37.0007098 Z" id="Shape"></path>
        </g>
    </g>
</svg>